<svg xmlns="http://www.w3.org/2000/svg" viewBox="0 0 1200 630" fill="none">
  <rect width="1200" height="630" rx="36" fill="#0f172a"/>
  <rect x="48" y="48" width="1104" height="534" rx="28" fill="#111827" stroke="#334155"/>
  <rect x="88" y="92" width="236" height="446" rx="22" fill="#1e293b"/>
  <rect x="118" y="132" width="176" height="18" rx="9" fill="#818cf8"/>
  <rect x="118" y="174" width="136" height="12" rx="6" fill="#64748b"/>
  <rect x="118" y="206" width="156" height="12" rx="6" fill="#64748b"/>
  <rect x="118" y="258" width="176" height="84" rx="16" fill="#0f172a" stroke="#334155"/>
  <rect x="118" y="370" width="176" height="124" rx="16" fill="#0f172a" stroke="#334155"/>
  <rect x="372" y="102" width="212" height="84" rx="20" fill="#312e81"/>
  <text x="402" y="138" fill="#e0e7ff" font-family="Inter, Arial, sans-serif" font-size="28" font-weight="700">SharePoint</text>
  <text x="402" y="168" fill="#c7d2fe" font-family="Inter, Arial, sans-serif" font-size="18">List item + versions</text>
  <rect x="650" y="102" width="212" height="84" rx="20" fill="#14532d"/>
  <text x="684" y="138" fill="#dcfce7" font-family="Inter, Arial, sans-serif" font-size="28" font-weight="700">Flow</text>
  <text x="684" y="168" fill="#bbf7d0" font-family="Inter, Arial, sans-serif" font-size="18">REST API + Parse JSON</text>
  <rect x="928" y="102" width="182" height="84" rx="20" fill="#0f766e"/>
  <text x="960" y="138" fill="#ccfbf1" font-family="Inter, Arial, sans-serif" font-size="28" font-weight="700">Power Apps</text>
  <text x="960" y="168" fill="#99f6e4" font-family="Inter, Arial, sans-serif" font-size="18">Gallery UI</text>
  <path d="M584 144H650" stroke="#94a3b8" stroke-width="10" stroke-linecap="round"/>
  <path d="M862 144H928" stroke="#94a3b8" stroke-width="10" stroke-linecap="round"/>
  <circle cx="607" cy="144" r="12" fill="#818cf8"/>
  <circle cx="885" cy="144" r="12" fill="#34d399"/>
  <text x="372" y="292" fill="#f8fafc" font-family="Inter, Arial, sans-serif" font-size="54" font-weight="800">Displaying SharePoint Version History</text>
  <text x="372" y="350" fill="#cbd5e1" font-family="Inter, Arial, sans-serif" font-size="30">in Power Apps with REST API and Power Automate</text>
  <rect x="372" y="414" width="356" height="52" rx="26" fill="#312e81"/>
  <text x="406" y="447" fill="#eef2ff" font-family="JetBrains Mono, monospace" font-size="22">/_api/.../items(id)/versions</text>
</svg>
